<svg width="756" height="756" xmlns="http://www.w3.org/2000/svg" xmlns:xlink="http://www.w3.org/1999/xlink" overflow="hidden"><defs><clipPath id="clip0"><rect x="0" y="0" width="756" height="756"/></clipPath><clipPath id="clip1"><rect x="255" y="114" width="281" height="284"/></clipPath><clipPath id="clip2"><rect x="255" y="114" width="281" height="284"/></clipPath><clipPath id="clip3"><rect x="255" y="114" width="281" height="284"/></clipPath></defs><g clip-path="url(#clip0)"><rect x="0" y="0" width="756" height="756" fill="#FFFFFF" fill-opacity="0"/><g clip-path="url(#clip1)"><g clip-path="url(#clip2)"><g clip-path="url(#clip3)"><path d="M245 46.6667 81.6667 46.6667C68.78 46.6667 58.3333 57.1133 58.3333 70 58.3333 82.8866 68.78 93.3333 81.6667 93.3333L245 93.3333 245 245C245 251.443 239.777 256.667 233.333 256.667L81.6667 256.667C55.8934 256.667 35 235.773 35 210L35 70C35 44.2267 55.8934 23.3333 81.6667 23.3333L233.333 23.3333C239.777 23.3333 245 28.5567 245 35L245 46.6667ZM233.333 81.6667 81.6667 81.6667C75.2234 81.6667 70 76.4433 70 70 70 63.5567 75.2234 58.3333 81.6667 58.3333L233.333 58.3333 233.333 81.6667Z" transform="matrix(1 0 0 1.01429 256 114)"/></g></g></g><path d="M91 297 700 297 638.396 612.676 173.835 613 91 297Z" fill="#ED7D31" fill-rule="evenodd"/><text fill="#F2F2F2" font-family="Consolas,Consolas_MSFontService,sans-serif" font-weight="400" font-size="133" transform="translate(211.913 501)">iBook</text></g></svg>